HIERARCHY
ROOT Hips
{
	OFFSET -0.001795 -0.223333 0.028219
	CHANNELS 6 Xposition Yposition Zposition Zrotation Yrotation Xrotation 
	JOINT LeftUpLeg
	{
		OFFSET 0.069520 -0.091406 -0.006815
		CHANNELS 3 Zrotation Yrotation Xrotation
		JOINT LeftLeg
		{
			OFFSET 0.034277 -0.375199 -0.004496
			CHANNELS 3 Zrotation Yrotation Xrotation
			JOINT LeftFoot
			{
				OFFSET -0.013596 -0.397961 -0.043693
				CHANNELS 3 Zrotation Yrotation Xrotation
				JOINT LeftToe
				{
					OFFSET 0.026358 -0.055791 0.119288
					CHANNELS 3 Zrotation Yrotation Xrotation
					End Site
					{
						OFFSET 0.000000 0.000000 0.000000
					}
				}
			}
		}
	}
	JOINT RightUpLeg
	{
		OFFSET -0.067670 -0.090522 -0.004320
		CHANNELS 3 Zrotation Yrotation Xrotation
		JOINT RightLeg
		{
			OFFSET -0.038290 -0.382569 -0.008850
			CHANNELS 3 Zrotation Yrotation Xrotation
			JOINT RightFoot
			{
				OFFSET 0.015774 -0.398415 -0.042312
				CHANNELS 3 Zrotation Yrotation Xrotation
				JOINT RightToe
				{
					OFFSET -0.025372 -0.048144 0.123348
					CHANNELS 3 Zrotation Yrotation Xrotation
					End Site
					{
						OFFSET 0.000000 0.000000 0.000000
					}
				}
			}
		}
	}
	JOINT Spine
	{
		OFFSET -0.002533 0.108963 -0.026696
		CHANNELS 3 Zrotation Yrotation Xrotation
		JOINT Spine1
		{
			OFFSET 0.005487 0.135180 0.001092
			CHANNELS 3 Zrotation Yrotation Xrotation
			JOINT Spine2
			{
				OFFSET 0.001457 0.052922 0.025425
				CHANNELS 3 Zrotation Yrotation Xrotation
				JOINT Neck
				{
					OFFSET -0.002778 0.213870 -0.042857
					CHANNELS 3 Zrotation Yrotation Xrotation
					JOINT Head
					{
						OFFSET 0.005152 0.064970 0.051349
						CHANNELS 3 Zrotation Yrotation Xrotation
						End Site
						{
							OFFSET 0.000000 0.000000 0.000000
						}
					}
				}
				JOINT LeftShoulder
				{
					OFFSET 0.078845 0.121749 -0.034090
					CHANNELS 3 Zrotation Yrotation Xrotation
					JOINT LeftArm
					{
						OFFSET 0.090977 0.030469 -0.008868
						CHANNELS 3 Zrotation Yrotation Xrotation
						JOINT LeftForeArm
						{
							OFFSET 0.259612 -0.012772 -0.027456
							CHANNELS 3 Zrotation Yrotation Xrotation
							JOINT LeftHand
							{
								OFFSET 0.249234 0.008986 -0.001171
								CHANNELS 3 Zrotation Yrotation Xrotation
								End Site
								{
									OFFSET 0.000000 0.000000 0.000000
								}
							}
						}
					}
				}
				JOINT RightShoulder
				{
					OFFSET -0.081759 0.118833 -0.038615
					CHANNELS 3 Zrotation Yrotation Xrotation
					JOINT RightArm
					{
						OFFSET -0.096012 0.032551 -0.009143
						CHANNELS 3 Zrotation Yrotation Xrotation
						JOINT RightForeArm
						{
							OFFSET -0.253742 -0.013329 -0.021401
							CHANNELS 3 Zrotation Yrotation Xrotation
							JOINT RightHand
							{
								OFFSET -0.255298 0.007772 -0.005559
								CHANNELS 3 Zrotation Yrotation Xrotation
								End Site
								{
									OFFSET 0.000000 0.000000 0.000000
								}
							}
						}
					}
				}
			}
		}
	}
}
MOTION
Frames: 9
Frame Time: 0.050000
0.000000 0.959394 0.000000 1.223978 7.117394 7.217225 1.853059 -0.308354 -3.260531 -0.065358 0.117014 -3.394019 5.209210 13.588524 12.007224 0.000000 0.000000 0.000000 -3.872091 0.931059 -13.836259 -3.254772 0.463962 1.433944 4.454596 4.722131 12.187405 0.000000 0.000000 0.000000 7.195009 -0.831700 5.276489 3.131935 -1.608380 1.342576 -4.916582 -1.499902 9.247745 12.479851 -8.135192 -8.737920 0.000000 0.000000 0.000000 -3.090992 -25.397188 9.151134 -40.367924 -20.899614 1.601575 -77.133206 -57.295461 49.552411 0.000000 0.000000 0.000000 6.569704 10.446231 4.144513 48.552290 6.887167 -2.298403 58.853654 52.723565 34.078441 0.000000 0.000000 0.000000 
0.000757 0.957612 -0.001054 0.778131 6.410185 7.495945 2.041308 -0.347939 -3.753828 0.744657 0.077827 -3.730867 6.052321 14.802221 11.923788 0.000000 0.000000 0.000000 -3.770279 0.966059 -13.930404 -3.037725 0.481092 2.210206 4.801504 5.751946 11.261697 0.000000 0.000000 0.000000 7.085777 -0.881830 5.773251 2.958903 -1.471240 0.786507 -4.682127 0.407083 9.765732 15.270149 -10.381147 -7.962675 0.000000 0.000000 0.000000 -2.283669 -25.229275 8.836156 -40.738297 -22.277663 2.002867 -78.139975 -55.238013 47.841098 0.000000 0.000000 0.000000 6.224038 9.654736 3.958933 49.096474 6.880810 -2.321019 58.570040 54.820927 36.017729 0.000000 0.000000 0.000000 
0.000757 0.957250 -0.002291 0.629705 6.176249 7.162180 2.898957 -0.329047 -3.348328 -0.232964 0.146016 -3.999421 5.327410 13.631329 11.684680 0.000000 0.000000 0.000000 -3.349820 0.981052 -13.418881 -3.675684 0.522407 1.588476 5.453985 6.856746 11.598254 0.000000 0.000000 0.000000 7.606496 -0.990301 6.359005 3.648519 -1.860677 1.448344 -5.262032 -0.198308 8.593579 14.913126 -10.279460 -7.220366 0.000000 0.000000 0.000000 -2.054755 -25.549094 8.981580 -41.072063 -20.285923 1.476905 -72.557954 -53.806373 42.688880 0.000000 0.000000 0.000000 5.233818 10.772808 4.278675 50.415461 8.755425 -1.464573 52.015750 55.229186 31.827577 0.000000 0.000000 0.000000 
0.000147 0.957253 -0.003451 0.630734 5.541612 7.879260 3.025446 -0.395835 -4.306104 -0.101288 0.130746 -3.731238 6.108663 14.773748 11.572105 0.000000 0.000000 0.000000 -3.690749 1.018705 -14.325848 -3.105372 0.468595 1.920795 6.468337 8.729629 11.739697 0.000000 0.000000 0.000000 7.800678 -1.018534 6.298587 3.421290 -1.779086 1.892648 -5.173430 -0.302501 8.371705 15.443933 -10.379508 -8.159777 0.000000 0.000000 0.000000 -0.733899 -25.716875 8.919062 -42.992235 -20.073927 1.540755 -68.536188 -54.849770 40.974332 0.000000 0.000000 0.000000 3.785858 10.919220 4.199672 52.094600 11.173829 -0.370292 48.455476 56.528073 30.338556 0.000000 0.000000 0.000000 
-0.001172 0.957192 -0.004614 0.839457 5.560656 7.614201 3.042663 -0.374975 -4.010008 -0.404295 0.143307 -3.499901 5.637065 14.021639 11.415241 0.000000 0.000000 0.000000 -4.150248 0.948366 -13.890099 -2.600048 0.398059 1.807688 6.101803 8.004161 11.726719 0.000000 0.000000 0.000000 7.648105 -1.044886 6.721179 4.046401 -2.133799 2.378795 -5.586539 -1.416737 7.802519 14.228278 -9.860384 -6.805848 0.000000 0.000000 0.000000 -0.975853 -26.622424 9.375187 -43.709525 -20.701702 1.891254 -59.389926 -55.477051 35.681417 0.000000 0.000000 0.000000 4.153846 12.853000 4.912275 52.378653 14.632411 1.131950 39.394115 56.966916 24.723324 0.000000 0.000000 0.000000 
-0.003013 0.957054 -0.005665 0.803041 5.069183 7.492588 3.066831 -0.405188 -4.507619 -0.142503 0.092692 -2.408285 5.767032 14.082908 10.762511 0.000000 0.000000 0.000000 -3.934064 0.987795 -14.064512 -2.790204 0.437799 2.092733 6.116007 7.983170 11.691939 0.000000 0.000000 0.000000 7.702087 -1.152494 7.650017 3.801474 -2.015211 2.501281 -5.537457 -1.232211 7.399503 14.243635 -9.927687 -6.510642 0.000000 0.000000 0.000000 -0.891268 -27.556975 9.721890 -44.589909 -22.868329 2.793431 -49.909431 -54.775339 29.297711 0.000000 0.000000 0.000000 3.778892 13.383737 5.090792 54.314773 17.260559 2.507377 32.367159 57.474089 20.821200 0.000000 0.000000 0.000000 
-0.004910 0.957165 -0.006467 1.069088 5.723167 7.763401 2.907252 -0.458065 -5.249861 -0.367102 0.100986 -2.139271 5.424638 13.638607 10.957339 0.000000 0.000000 0.000000 -4.329936 0.936794 -14.039249 -2.534466 0.393264 1.865623 5.812039 7.509934 11.611554 0.000000 0.000000 0.000000 7.517650 -1.092773 7.202379 3.899737 -2.044788 2.208978 -5.720215 -1.937463 7.814185 13.751405 -9.535561 -6.715587 0.000000 0.000000 0.000000 -1.471699 -28.340601 10.158306 -44.895647 -24.601669 3.465465 -42.539580 -54.557239 24.942982 0.000000 0.000000 0.000000 3.842600 14.100462 5.359492 54.915747 18.871660 3.263344 27.974991 56.365190 17.801862 0.000000 0.000000 0.000000 
-0.006619 0.957692 -0.006937 1.171384 6.597357 8.128285 2.925828 -0.497563 -5.756983 -0.101402 0.075080 -1.974315 4.802326 12.650206 10.531498 0.000000 0.000000 0.000000 -4.335645 0.924011 -14.117832 -2.445298 0.366347 1.553996 5.489061 7.145847 11.303705 0.000000 0.000000 0.000000 7.611414 -1.064807 6.729613 4.081430 -2.155143 2.318235 -6.290727 -1.854399 7.526475 14.086894 -9.752915 -6.667426 0.000000 0.000000 0.000000 -1.161775 -29.284385 10.402734 -44.678869 -26.251186 4.071524 -40.823159 -55.635256 24.338960 0.000000 0.000000 0.000000 3.567960 14.417236 5.522742 55.217907 19.507649 3.686219 26.179158 56.155561 16.861101 0.000000 0.000000 0.000000 
-0.008011 0.958201 -0.007099 1.396436 7.749112 8.584173 2.656017 -0.564798 -6.604583 0.120776 0.039172 -1.425219 4.255229 11.810645 10.216015 0.000000 0.000000 0.000000 -4.492853 0.881341 -13.967421 -2.475558 0.331159 0.808477 4.957670 6.115383 11.566669 0.000000 0.000000 0.000000 7.651651 -1.028396 6.192187 3.726563 -1.959494 1.994861 -6.438484 -1.861471 8.023791 13.663549 -9.289192 -7.210780 0.000000 0.000000 0.000000 -1.388522 -29.784644 10.581067 -43.874243 -27.574811 4.400502 -44.109910 -58.232338 27.581395 0.000000 0.000000 0.000000 2.761363 14.525679 5.542181 55.089971 18.956493 3.436257 26.941496 56.216400 17.452391 0.000000 0.000000 0.000000 
